#!OML:ASF H:\Pregnant\Project 1\Capture day 1\Session 1\femalepreg.ASF
:FULLY-SPECIFIED
:DEGREES
2211
root 3.39626 15.8737 12.015 -1155.44 -92.6599 1175
lowerback -11.5328 1.40547 9.79343
upperback -6.20247 0.450328 3.63897
thorax -0.0177054 -0.118091 -1.63408
lowerneck -10.6203 17.9823 20.5516
upperneck 19.302 25.9515 -18.9633
head 13.692 11.54 -5.52593
rclavicle 6.4605e-015 -3.81667e-014
rhumerus -33.5845 -12.2093 -64.5513
rradius 28.1428
rwrist -14.7234
rhand -25.0435 -28.69
rfingers 7.12502
rthumb 1.46957 -58.6647
lclavicle 6.4605e-015 -3.81667e-014
lhumerus -36.6961 -9.65451 82.8825
lradius 43.7015
lwrist 35.6928
lhand -16.4987 -6.58893
lfingers 7.12502
lthumb 9.71903 23.1668
rfemur -30.4302 14.1289 9.77041
rtibia 29.7897
rfoot -12.6285 -16.6797
rtoes -21.6989
lfemur -28.2014 -9.3908 -1.86708
ltibia 22.9614
lfoot -7.59174 2.73274
ltoes -37.5534
2212
root 3.3799 15.8594 12.1017 -1158.98 -92.8379 1178.51
lowerback -11.6346 1.37845 9.4509
upperback -6.24695 0.440602 3.61677
thorax -0.00816505 -0.115668 -1.46901
lowerneck -10.8539 17.8517 20.3917
upperneck 19.3669 25.6874 -18.7404
head 13.6347 11.4177 -5.47883
rclavicle 1.24737e-014 -4.13472e-014
rhumerus -34.1836 -12.6973 -63.9173
rradius 28.2115
rwrist -14.7167
rhand -24.8503 -28.7367
rfingers 7.12502
rthumb 1.65611 -58.71
lclavicle 1.24737e-014 -4.13472e-014
lhumerus -36.273 -9.98238 83.2038
lradius 43.462
lwrist 35.7435
lhand -16.7962 -6.74139
lfingers 7.12502
lthumb 9.43195 23.0276
rfemur -30.2022 14.1151 9.64455
rtibia 29.6774
rfoot -12.4915 -16.8601
rtoes -22.2232
lfemur -27.9937 -8.92538 -2.20196
ltibia 22.7226
lfoot -8.28439 2.39957
ltoes -37.451
2213
root 3.36478 15.8458 12.1882 -1162.5 -92.9964 1182.01
lowerback -11.7272 1.33439 9.05046
upperback -6.29659 0.417099 3.59082
thorax -0.0100379 -0.119016 -1.27739
lowerneck -11.0835 17.7137 20.2401
upperneck 19.4256 25.4126 -18.5232
head 13.5755 11.2916 -5.43759
rclavicle 2.98177e-015 0
rhumerus -34.8052 -13.1597 -63.3001
rradius 28.3345
rwrist -14.6887
rhand -24.6318 -28.7307
rfingers 7.12502
rthumb 1.86714 -58.7023
lclavicle 2.98177e-015 0
lhumerus -35.8527 -10.3206 83.5361
lradius 43.1794
lwrist 35.8271
lhand -17.0841 -6.91252
lfingers 7.12502
lthumb 9.15419 22.8688
rfemur -29.9823 14.102 9.48146
rtibia 29.5803
rfoot -12.3521 -17.0584
rtoes -22.7225
lfemur -27.7796 -8.47807 -2.57202
ltibia 22.4275
lfoot -8.93069 2.07044
ltoes -37.2065
2214
root 3.35078 15.8337 12.2755 -1166.06 -93.134 1185.56
lowerback -11.8182 1.25729 8.58678
upperback -6.34969 0.35787 3.56653
thorax -0.0188473 -0.138643 -1.05304
lowerneck -11.2952 17.5845 20.1318
upperneck 19.4731 25.1505 -18.3256
head 13.5228 11.174 -5.40628
rclavicle -1.05356e-014 -3.33958e-014
rhumerus -35.4186 -13.5466 -62.7365
rradius 28.5038
rwrist -14.6539
rhand -24.3923 -28.6653
rfingers 7.12502
rthumb 2.09849 -58.6347
lclavicle -1.05356e-014 -3.33958e-014
lhumerus -35.4399 -10.6254 83.853
lradius 42.8524
lwrist 35.9438
lhand -17.3709 -7.09816
lfingers 7.12502
lthumb 8.87745 22.6951
rfemur -29.7746 14.0773 9.27546
rtibia 29.495
rfoot -12.209 -17.264
rtoes -23.2108
lfemur -27.5608 -8.07858 -2.97172
ltibia 22.0683
lfoot -9.5233 1.7485
ltoes -36.8378
2215
root 3.33802 15.8232 12.3635 -1169.66 -93.2537 1189.16
lowerback -11.9124 1.1438 8.05891
upperback -6.40407 0.257555 3.55093
thorax -0.0292488 -0.176912 -0.788603
lowerneck -11.4887 17.4625 20.0557
upperneck 19.4989 24.9003 -18.1535
head 13.4712 11.0635 -5.386
rclavicle 2.43511e-015 2.54444e-014
rhumerus -36.0069 -13.8265 -62.2363
rradius 28.7146
rwrist -14.6211
rhand -24.1574 -28.5339
rfingers 7.12502
rthumb 2.32533 -58.5009
lclavicle 2.43511e-015 2.54444e-014
lhumerus -35.0278 -10.8501 84.1464
lradius 42.4756
lwrist 36.0723
lhand -17.647 -7.2946
lfingers 7.12502
lthumb 8.611 22.5098
rfemur -29.58 14.0303 9.02962
rtibia 29.4142
rfoot -12.0617 -17.4627
rtoes -23.6958
lfemur -27.3432 -7.73432 -3.39345
ltibia 21.6532
lfoot -10.0601 1.41797
ltoes -36.3831
2216
root 3.32643 15.8143 12.4523 -1173.38 -93.3639 1192.9
lowerback -12.0112 1.0059 7.48211
upperback -6.4601 0.130454 3.53783
thorax -0.0389373 -0.227075 -0.497211
lowerneck -11.6853 17.3443 19.9939
upperneck 19.5208 24.6528 -17.9836
head 13.4226 10.955 -5.36692
rclavicle -8.92046e-015 2.70347e-014
rhumerus -36.5806 -14.0456 -61.782
rradius 28.9609
rwrist -14.576
rhand -23.9133 -28.3449
rfingers 7.12502
rthumb 2.56108 -58.3093
lclavicle -8.92046e-015 2.70347e-014
lhumerus -34.6152 -11.0591 84.4365
lradius 42.054
lwrist 36.2432
lhand -17.9127 -7.4882
lfingers 7.12502
lthumb 8.35454 22.3266
rfemur -29.3969 13.9655 8.74809
rtibia 29.3289
rfoot -11.8939 -17.6599
rtoes -24.2072
lfemur -27.1456 -7.48424 -3.81749
ltibia 21.2094
lfoot -10.5336 1.10522
ltoes -35.8926
2217
root 3.31614 15.8072 12.5417 -1177.23 -93.4741 1196.79
lowerback -12.1128 0.845894 6.86342
upperback -6.51496 -0.0211218 3.53229
thorax -0.0449493 -0.287964 -0.177158
lowerneck -11.8962 17.2265 19.9275
upperneck 19.5393 24.4046 -17.8145
head 13.3756 10.8452 -5.3462
rclavicle -5.29264e-015 -1.43125e-014
rhumerus -37.1307 -14.1975 -61.3741
rradius 29.2386
rwrist -14.5597
rhand -23.6653 -28.0984
rfingers 7.12502
rthumb 2.80061 -58.0598
lclavicle -5.29264e-015 -1.43125e-014
lhumerus -34.1914 -11.217 84.7233
lradius 41.581
lwrist 36.4237
lhand -18.1782 -7.67384
lfingers 7.12502
lthumb 8.09835 22.151
rfemur -29.2212 13.8868 8.4377
rtibia 29.2322
rfoot -11.6985 -17.8552
rtoes -24.732
lfemur -26.9907 -7.33091 -4.23571
ltibia 20.7776
lfoot -10.9387 0.814331
ltoes -35.4437
2218
root 3.3075 15.8024 12.6318 -1181.3 -93.5937 1200.9
lowerback -12.205 0.69772 6.23711
upperback -6.56883 -0.153914 3.51533
thorax -0.0517624 -0.339055 0.137904
lowerneck -12.1743 17.0841 19.7879
upperneck 19.5784 24.1147 -17.6008
head 13.3234 10.7118 -5.30552
rclavicle 9.81499e-015 -3.73715e-014
rhumerus -37.7021 -14.382 -60.9567
rradius 29.5467
rwrist -14.5513
rhand -23.4033 -27.8128
rfingers 7.12502
rthumb 3.05366 -57.7707
lclavicle 9.81499e-015 -3.73715e-014
lhumerus -33.7379 -11.4278 85.0478
lradius 41.0528
lwrist 36.6313
lhand -18.4385 -7.84352
lfingers 7.12502
lthumb 7.84712 21.9909
rfemur -29.0458 13.7927 8.10352
rtibia 29.1211
rfoot -11.4688 -18.0491
rtoes -25.2759
lfemur -26.911 -7.29036 -4.63955
ltibia 20.4092
lfoot -11.2649 0.554913
ltoes -35.0338
2219
root 3.30092 15.8 12.7218 -1185.56 -93.7278 1205.23
lowerback -12.2814 0.557429 5.5993
upperback -6.61968 -0.272281 3.48797
thorax -0.0614225 -0.382318 0.450744
lowerneck -12.5152 16.919 19.5764
upperneck 19.6296 23.7869 -17.3464
head 13.2642 10.557 -5.24539
rclavicle -1.14053e-014 3.4191e-014
rhumerus -38.2885 -14.6214 -60.526
rradius 29.8759
rwrist -14.537
rhand -23.1228 -27.4951
rfingers 7.12502
rthumb 3.32455 -57.449
lclavicle -1.14053e-014 3.4191e-014
lhumerus -33.255 -11.6857 85.4044
lradius 40.4708
lwrist 36.8671
lhand -18.7102 -7.99756
lfingers 7.12502
lthumb 7.58489 21.8464
rfemur -28.8725 13.6871 7.74643
rtibia 29.0009
rfoot -11.2099 -18.2405
rtoes -25.7979
lfemur -26.9327 -7.35428 -5.03097
ltibia 20.1491
lfoot -11.5092 0.323068
ltoes -34.668
2220
root 3.29677 15.8 12.8118 -1190.03 -93.8824 1209.78
lowerback -12.3371 0.411249 4.94394
upperback -6.66627 -0.393871 3.45639
thorax -0.0759613 -0.426322 0.769183
lowerneck -12.8997 16.7401 19.3162
upperneck 19.68 23.4374 -17.0696
head 13.2001 10.3892 -5.17244
rclavicle 6.1996e-015 -3.97569e-014
rhumerus -38.8685 -14.9028 -60.0993
rradius 30.212
rwrist -14.5137
rhand -22.8356 -27.1606
rfingers 7.12502
rthumb 3.60183 -57.1099
lclavicle 6.1996e-015 -3.97569e-014
lhumerus -32.75 -11.9496 85.7772
lradius 39.8405
lwrist 37.1191
lhand -19.0016 -8.12762
lfingers 7.12502
lthumb 7.30361 21.7263
rfemur -28.7083 13.5593 7.36967
rtibia 28.8857
rfoot -10.9194 -18.4274
rtoes -26.2992
lfemur -27.0764 -7.49492 -5.41851
ltibia 20.0273
lfoot -11.6757 0.091231
ltoes -34.3247
2221
root 3.29525 15.8017 12.901 -1194.67 -94.0519 1214.5
lowerback -12.3602 0.243752 4.24911
upperback -6.70546 -0.536251 3.42495
thorax -0.0982376 -0.479068 1.10802
lowerneck -13.3029 16.5571 19.0311
upperneck 19.7151 23.0821 -16.7853
head 13.1302 10.2178 -5.09256
rclavicle 1.47101e-014 -6.20208e-014
rhumerus -39.4239 -15.2026 -59.6978
rradius 30.5477
rwrist -14.4749
rhand -22.5571 -26.8269
rfingers 7.12502
rthumb 3.8708 -56.7715
lclavicle 1.47101e-014 -6.20208e-014
lhumerus -32.2292 -12.1719 86.1432
lradius 39.1579
lwrist 37.3659
lhand -19.2983 -8.24028
lfingers 7.12502
lthumb 7.01723 21.6234
rfemur -28.5563 13.3996 6.96883
rtibia 28.801
rfoot -10.6208 -18.5962
rtoes -26.7207
lfemur -27.3281 -7.70341 -5.81676
ltibia 20.0453
lfoot -11.7774 -0.141296
ltoes -33.9914
2222
root 3.29628 15.8045 12.9899 -1199.42 -94.237 1219.33
lowerback -12.3588 0.0604377 3.52866
upperback -6.73702 -0.694668 3.38215
thorax -0.123255 -0.538628 1.44827
lowerneck -13.7308 16.3701 18.7263
upperneck 19.7365 22.7165 -16.4812
head 13.0543 10.0423 -5.00263
rclavicle 1.73688e-014 -6.36111e-015
rhumerus -39.962 -15.5318 -59.3332
rradius 30.883
rwrist -14.4295
rhand -22.3269 -26.4977
rfingers 7.12502
rthumb 4.09314 -56.4381
lclavicle 1.73688e-014 -6.36111e-015
lhumerus -31.6993 -12.3781 86.4854
lradius 38.4372
lwrist 37.6177
lhand -19.6036 -8.33312
lfingers 7.12502
lthumb 6.7225 21.5402
rfemur -28.4424 13.1893 6.54036
rtibia 28.7786
rfoot -10.342 -18.7297
rtoes -27.0017
lfemur -27.6756 -7.96505 -6.23093
ltibia 20.1756
lfoot -11.8256 -0.385975
ltoes -33.6283
2223
root 3.29959 15.8076 13.0779 -1204.14 -94.4442 1224.15
lowerback -12.3321 -0.131452 2.79054
upperback -6.76002 -0.861048 3.32752
thorax -0.150097 -0.60123 1.78606
lowerneck -14.1933 16.1728 18.3594
upperneck 19.7493 22.3297 -16.1177
head 12.9627 9.8582 -4.88419
rclavicle 5.2181e-015 -2.14687e-014
rhumerus -40.4946 -15.903 -58.9932
rradius 31.2213
rwrist -14.3789
rhand -22.1556 -26.1792
rfingers 7.12502
rthumb 4.25856 -56.1163
lclavicle 5.2181e-015 -2.14687e-014
lhumerus -31.1606 -12.5652 86.8056
lradius 37.6821
lwrist 37.8511
lhand -19.916 -8.39686
lfingers 7.12502
lthumb 6.42088 21.4858
rfemur -28.3836 12.9062 6.101
rtibia 28.8503
rfoot -10.0884 -18.821
rtoes -27.1468
lfemur -28.0802 -8.27608 -6.65324
ltibia 20.3662
lfoot -11.832 -0.636371
ltoes -33.2484
2224
root 3.30504 15.8105 13.1652 -1208.79 -94.6693 1228.89
lowerback -12.2768 -0.320308 2.04406
upperback -6.7809 -1.02136 3.25001
thorax -0.187726 -0.660457 2.10656
lowerneck -14.6894 15.9559 17.9476
upperneck 19.7616 21.9085 -15.7012
head 12.8606 9.66063 -4.7456
rclavicle -1.31695e-014 1.19271e-014
rhumerus -41.0504 -16.3214 -58.6716
rradius 31.5702
rwrist -14.3329
rhand -22.0423 -25.8848
rfingers 7.12502
rthumb 4.36791 -55.8198
lclavicle -1.31695e-014 1.19271e-014
lhumerus -30.6342 -12.7977 87.1072
lradius 36.9204
lwrist 38.1009
lhand -20.2099 -8.41008
lfingers 7.12502
lthumb 6.13716 21.481
rfemur -28.393 12.533 5.6529
rtibia 29.0358
rfoot -9.86713 -18.8556
rtoes -27.1436
lfemur -28.5028 -8.61299 -7.09152
ltibia 20.5607
lfoot -11.8051 -0.90673
ltoes -32.8441
